<?xml version="1.0" encoding="utf-8"?>
<!-- Generator: Adobe Illustrator 24.1.2, SVG Export Plug-In . SVG Version: 6.00 Build 0)  -->
<svg version="1.1" id="Layer_1" xmlns="http://www.w3.org/2000/svg" xmlns:xlink="http://www.w3.org/1999/xlink" x="0px" y="0px"
	 viewBox="0 0 1460.7 1460.7" style="enable-background:new 0 0 1460.7 1460.7;" xml:space="preserve">
<style type="text/css">
	.st0{fill:#FF0000;}
	.st1{fill:#FFFFFF;}
</style>
<g>
	<path class="st0" d="M0,725.4c0,0,283.2-478.2,731.1-725.4c86.9,56.5,586.3,434.4,729.7,726.8c-41,86.9-255.7,435.8-731.1,728.2
		C642.1,1390.8,193.5,1061.6,0,725.4z"/>
	<path class="st1" d="M1167.6,516.3c-7.1-60-41.7-113-92.5-145.5c-26.8-17.7-65-33.9-118-43.1c-25.4-4.2-50.9-6.4-76.3-6.4H573.6
		c0,0-149.7-9.9-190,59.3c-9.9,13.4-46.6,69.2,6.4,135.6c19.8,19.8,39.6,36,56.5,46.6c-19.8,19.8-159.6,168.8-159.6,168.8l43.1,33.2
		l190-211.9c0,0-56.5-13.4-86.9-56.5c-13.4-23.3-30.4-76.3,17-112.3c19.8-9.9,53-19.8,126.4-17c0,33.2-1.4,385.7-1.4,385.7h274.8
		H926c0,0,136.3-11.3,199.9-97.5C1140.1,638.5,1176.1,590.5,1167.6,516.3z M805.9,708.5H632.9V553.1h173.1V708.5z M805.9,510H632.9
		V368h173.1V510z M1105.4,581.3c-18.4,62.2-70.6,89.7-89.7,100.3c-76.3,36-159.6,29.7-159.6,29.7l3.5-347.5
		c39.6-3.5,106.7,9.9,136.3,19.8c87.6,31.8,107.4,91.1,113.7,130.7C1113.2,537.5,1111.8,560.1,1105.4,581.3z"/>
	<g>
		<path class="st1" d="M443.6,871.6V1193H635v-185.8c0,0,50.2-32.5,84.1-29.7c12,2.1,38.1,4.9,33.9,66.4c0,17,0,148.3,0,148.3h38.1
			v-180.8c0,0,0-61.5-57.9-69.2c-17,0-38.1,0-98.2,32.5c0-12,0-27.5,0-27.5h-38.1V1157H479.6l2.1-286.8L443.6,871.6L443.6,871.6z"/>
		<rect x="596.9" y="871.6" class="st1" width="41" height="42.4"/>
		<path class="st1" d="M913.3,943c-22.6,0-50.2,9.2-77,39.6c-7.1,9.9-50.2,64.3-14.1,143.4c36,79.1,144.1,69.2,170.2,66.4
			c2.1-17,4.9-32.5,4.9-32.5s-67.1,7.1-105.2-12c-17-12-43.1-27.5-48-86.9h167.4c0,0,2.1-19.1-3.5-43.1
			C997.4,974.1,957.8,942.3,913.3,943z M846.2,1034.8c0,0,2.1-9.2,7.1-19.8c9.9-21.9,29.7-38.1,53-41.7c8.5-1.4,17.7-1.4,27.5,2.1
			c12,3.5,21.9,12,29,22.6c7.1,9.9,12,21.9,13.4,36.7L846.2,1034.8L846.2,1034.8z"/>
	</g>
</g>
</svg>
