<?xml version="1.0" encoding="utf-8"?>
<!-- Generator: Adobe Illustrator 24.1.2, SVG Export Plug-In . SVG Version: 6.00 Build 0)  -->
<svg version="1.1" id="Layer_1" xmlns="http://www.w3.org/2000/svg" xmlns:xlink="http://www.w3.org/1999/xlink" x="0px" y="0px"
	 viewBox="0 0 576 576" style="enable-background:new 0 0 576 576;" xml:space="preserve">
<style type="text/css">
	.st0{fill:#FF0000;}
	.st1{fill:#FFFFFF;}
</style>
<g>
	<path class="st0" d="M177.1,277.5c0,0,40.1-67.7,103.5-102.7c12.3,8,83,61.5,103.3,102.9c-5.8,12.3-36.2,61.7-103.5,103.1
		C268,371.7,204.5,325.1,177.1,277.5z"/>
	<path class="st1" d="M342.4,247.9c-1-8.5-5.9-16-13.1-20.6c-3.8-2.5-9.2-4.8-16.7-6.1c-3.6-0.6-7.2-0.9-10.8-0.9h-43.5
		c0,0-21.2-1.4-26.9,8.4c-1.4,1.9-6.6,9.8,0.9,19.2c2.8,2.8,5.6,5.1,8,6.6c-2.8,2.8-22.6,23.9-22.6,23.9l6.1,4.7l26.9-30
		c0,0-8-1.9-12.3-8c-1.9-3.3-4.3-10.8,2.4-15.9c2.8-1.4,7.5-2.8,17.9-2.4c0,4.7-0.2,54.6-0.2,54.6h38.9h10.8c0,0,19.3-1.6,28.3-13.8
		C338.5,265.2,343.6,258.4,342.4,247.9z M291.2,275.1h-24.5v-22h24.5V275.1z M291.2,247h-24.5v-20.1h24.5V247z M333.6,257.1
		c-2.6,8.8-10,12.7-12.7,14.2c-10.8,5.1-22.6,4.2-22.6,4.2l0.5-49.2c5.6-0.5,15.1,1.4,19.3,2.8c12.4,4.5,15.2,12.9,16.1,18.5
		C334.7,250.9,334.5,254.1,333.6,257.1z"/>
	<g>
		<path class="st1" d="M239.9,298.2v45.5H267v-26.3c0,0,7.1-4.6,11.9-4.2c1.7,0.3,5.4,0.7,4.8,9.4c0,2.4,0,21,0,21h5.4v-25.6
			c0,0,0-8.7-8.2-9.8c-2.4,0-5.4,0-13.9,4.6c0-1.7,0-3.9,0-3.9h-5.4v29.7H245l0.3-40.6L239.9,298.2L239.9,298.2z"/>
		<rect x="261.6" y="298.2" class="st1" width="5.8" height="6"/>
		<path class="st1" d="M306.4,308.3c-3.2,0-7.1,1.3-10.9,5.6c-1,1.4-7.1,9.1-2,20.3c5.1,11.2,20.4,9.8,24.1,9.4
			c0.3-2.4,0.7-4.6,0.7-4.6s-9.5,1-14.9-1.7c-2.4-1.7-6.1-3.9-6.8-12.3h23.7c0,0,0.3-2.7-0.5-6.1
			C318.3,312.7,312.7,308.2,306.4,308.3z M296.9,321.3c0,0,0.3-1.3,1-2.8c1.4-3.1,4.2-5.4,7.5-5.9c1.2-0.2,2.5-0.2,3.9,0.3
			c1.7,0.5,3.1,1.7,4.1,3.2c1,1.4,1.7,3.1,1.9,5.2H296.9z"/>
	</g>
</g>
</svg>
